<svg width="27" height="27" viewBox="0 0 24 24" fill="none" xmlns="http://www.w3.org/2000/svg">
<path d="M17.75 3C18.612 3 19.4386 3.34241 20.0481 3.9519C20.6576 4.5614 21 5.38805 21 6.25V17.75C21 18.612 20.6576 19.4386 20.0481 20.0481C19.4386 20.6576 18.612 21 17.75 21H6.25C5.38805 21 4.5614 20.6576 3.9519 20.0481C3.34241 19.4386 3 18.612 3 17.75V6.25C3 5.38805 3.34241 4.5614 3.9519 3.9519C4.5614 3.34241 5.38805 3 6.25 3H17.75ZM7.75 13.5C7.41848 13.5 7.10054 13.6317 6.86612 13.8661C6.6317 14.1005 6.5 14.4185 6.5 14.75C6.5 15.0815 6.6317 15.3995 6.86612 15.6339C7.10054 15.8683 7.41848 16 7.75 16C8.08152 16 8.39946 15.8683 8.63388 15.6339C8.8683 15.3995 9 15.0815 9 14.75C9 14.4185 8.8683 14.1005 8.63388 13.8661C8.39946 13.6317 8.08152 13.5 7.75 13.5ZM12 13.5C11.6685 13.5 11.3505 13.6317 11.1161 13.8661C10.8817 14.1005 10.75 14.4185 10.75 14.75C10.75 15.0815 10.8817 15.3995 11.1161 15.6339C11.3505 15.8683 11.6685 16 12 16C12.3315 16 12.6495 15.8683 12.8839 15.6339C13.1183 15.3995 13.25 15.0815 13.25 14.75C13.25 14.4185 13.1183 14.1005 12.8839 13.8661C12.6495 13.6317 12.3315 13.5 12 13.5V13.5ZM7.75 8.5C7.41848 8.5 7.10054 8.6317 6.86612 8.86612C6.6317 9.10054 6.5 9.41848 6.5 9.75C6.5 10.0815 6.6317 10.3995 6.86612 10.6339C7.10054 10.8683 7.41848 11 7.75 11C8.08152 11 8.39946 10.8683 8.63388 10.6339C8.8683 10.3995 9 10.0815 9 9.75C9 9.41848 8.8683 9.10054 8.63388 8.86612C8.39946 8.6317 8.08152 8.5 7.75 8.5ZM12 8.5C11.6685 8.5 11.3505 8.6317 11.1161 8.86612C10.8817 9.10054 10.75 9.41848 10.75 9.75C10.75 10.0815 10.8817 10.3995 11.1161 10.6339C11.3505 10.8683 11.6685 11 12 11C12.3315 11 12.6495 10.8683 12.8839 10.6339C13.1183 10.3995 13.25 10.0815 13.25 9.75C13.25 9.41848 13.1183 9.10054 12.8839 8.86612C12.6495 8.6317 12.3315 8.5 12 8.5V8.5ZM16.25 8.5C15.9185 8.5 15.6005 8.6317 15.3661 8.86612C15.1317 9.10054 15 9.41848 15 9.75C15 10.0815 15.1317 10.3995 15.3661 10.6339C15.6005 10.8683 15.9185 11 16.25 11C16.5815 11 16.8995 10.8683 17.1339 10.6339C17.3683 10.3995 17.5 10.0815 17.5 9.75C17.5 9.41848 17.3683 9.10054 17.1339 8.86612C16.8995 8.6317 16.5815 8.5 16.25 8.5Z" fill="gray"/>
</svg>
