<svg width="28" height="28" viewBox="0 0 24 24" fill="none" xmlns="http://www.w3.org/2000/svg">
<path d="M13.3139 11.9L16.8489 8.364C16.9445 8.27176 17.0206 8.16141 17.073 8.03941C17.1255 7.9174 17.153 7.78618 17.1542 7.6534C17.1553 7.52062 17.13 7.38894 17.0798 7.26605C17.0295 7.14315 16.9552 7.0315 16.8613 6.93761C16.7674 6.84371 16.6558 6.76946 16.5329 6.71918C16.41 6.6689 16.2783 6.6436 16.1455 6.64475C16.0128 6.64591 15.8815 6.67349 15.7595 6.7259C15.6375 6.77831 15.5272 6.85449 15.4349 6.95L11.8989 10.485L8.36394 6.95C8.27169 6.85449 8.16135 6.77831 8.03935 6.7259C7.91734 6.67349 7.78612 6.64591 7.65334 6.64475C7.52056 6.6436 7.38888 6.6689 7.26599 6.71918C7.14309 6.76946 7.03144 6.84371 6.93755 6.93761C6.84365 7.0315 6.7694 7.14315 6.71912 7.26605C6.66884 7.38894 6.64354 7.52062 6.64469 7.6534C6.64584 7.78618 6.67343 7.9174 6.72584 8.03941C6.77825 8.16141 6.85443 8.27176 6.94994 8.364L10.4849 11.899L6.94994 15.435C6.85443 15.5273 6.77825 15.6376 6.72584 15.7596C6.67343 15.8816 6.64584 16.0128 6.64469 16.1456C6.64354 16.2784 6.66884 16.4101 6.71912 16.533C6.7694 16.6559 6.84365 16.7675 6.93755 16.8614C7.03144 16.9553 7.14309 17.0295 7.26599 17.0798C7.38888 17.1301 7.52056 17.1554 7.65334 17.1543C7.78612 17.1531 7.91734 17.1255 8.03935 17.0731C8.16135 17.0207 8.27169 16.9445 8.36394 16.849L11.8989 13.314L15.4349 16.849C15.5272 16.9445 15.6375 17.0207 15.7595 17.0731C15.8815 17.1255 16.0128 17.1531 16.1455 17.1543C16.2783 17.1554 16.41 17.1301 16.5329 17.0798C16.6558 17.0295 16.7674 16.9553 16.8613 16.8614C16.9552 16.7675 17.0295 16.6559 17.0798 16.533C17.13 16.4101 17.1553 16.2784 17.1542 16.1456C17.153 16.0128 17.1255 15.8816 17.073 15.7596C17.0206 15.6376 16.9445 15.5273 16.8489 15.435L13.3139 11.899V11.9Z" fill="#9e73c8"/>
</svg>
