<svg width="33" height="33" viewBox="0 0 16 16" fill="none" xmlns="http://www.w3.org/2000/svg">
<path fill-rule="evenodd" clip-rule="evenodd" d="M10.97 4.97001C11.11 4.83128 11.2989 4.7532 11.496 4.75266C11.693 4.75211 11.8824 4.82915 12.0231 4.9671C12.1638 5.10505 12.2446 5.29285 12.2479 5.48987C12.2513 5.6869 12.177 5.87734 12.041 6.02001L8.04904 11.01C7.98043 11.0839 7.89762 11.1432 7.80557 11.1844C7.71352 11.2255 7.61411 11.2477 7.51329 11.2496C7.41247 11.2514 7.31231 11.233 7.21879 11.1952C7.12528 11.1575 7.04033 11.1013 6.96904 11.03L4.32404 8.38401C4.25035 8.31534 4.19125 8.23254 4.15025 8.14054C4.10926 8.04854 4.08722 7.94923 4.08544 7.84853C4.08367 7.74783 4.10219 7.6478 4.13991 7.55441C4.17763 7.46102 4.23378 7.37619 4.305 7.30497C4.37622 7.23375 4.46105 7.1776 4.55444 7.13988C4.64783 7.10216 4.74786 7.08364 4.84856 7.08541C4.94926 7.08719 5.04857 7.10923 5.14057 7.15022C5.23257 7.19122 5.31537 7.25032 5.38404 7.32401L7.47804 9.41701L10.951 4.99201C10.9572 4.98426 10.9639 4.97691 10.971 4.97001H10.97Z" fill="#9e73c8"/>
</svg>
