<svg width="17" height="20" viewBox="0 0 60 69" fill="none" xmlns="http://www.w3.org/2000/svg">
<path d="M55.7143 28.0312H36.4286V8.625C36.4286 6.24369 34.5094 4.3125 32.1429 4.3125H27.8571C25.4906 4.3125 23.5714 6.24369 23.5714 8.625V28.0312H4.28571C1.9192 28.0312 0 29.9624 0 32.3438V36.6562C0 39.0376 1.9192 40.9688 4.28571 40.9688H23.5714V60.375C23.5714 62.7563 25.4906 64.6875 27.8571 64.6875H32.1429C34.5094 64.6875 36.4286 62.7563 36.4286 60.375V40.9688H55.7143C58.0808 40.9688 60 39.0376 60 36.6562V32.3438C60 29.9624 58.0808 28.0312 55.7143 28.0312Z" fill="white"/>
</svg>
